<?xml version="1.0" encoding="UTF-8"?>
<svg width="100" height="100" viewBox="0 0 100 100" fill="none" xmlns="http://www.w3.org/2000/svg">
  <circle cx="50" cy="50" r="50" fill="#4F46E5"/>
  <path d="M50 30C41.7157 30 35 36.7157 35 45C35 53.2843 41.7157 60 50 60C58.2843 60 65 53.2843 65 45C65 36.7157 58.2843 30 50 30ZM50 55C44.4772 55 40 50.5228 40 45C40 39.4772 44.4772 35 50 35C55.5228 35 60 39.4772 60 45C60 50.5228 55.5228 55 50 55Z" fill="white"/>
  <path d="M50 65C41.7157 65 35 71.7157 35 80H65C65 71.7157 58.2843 65 50 65Z" fill="white"/>
</svg> 